<svg xmlns="http://www.w3.org/2000/svg" width="512" height="512" viewBox="0 0 512 512">
  <rect width="512" height="512" rx="96" fill="#3B82F6"/>
  <g transform="translate(256,256) scale(8)" stroke="white" stroke-width="2" fill="none" stroke-linecap="round" stroke-linejoin="round">
    <rect x="-16" y="-6" width="32" height="22" rx="2"/>
    <rect x="-20" y="-12" width="40" height="6" rx="1"/>
    <line x1="0" y1="-12" x2="0" y2="16"/>
    <path d="M0 -12 C0 -12 -4 -20 -10 -20 C-14 -20 -16 -16 -14 -13 C-12 -10 0 -12 0 -12"/>
    <path d="M0 -12 C0 -12 4 -20 10 -20 C14 -20 16 -16 14 -13 C12 -10 0 -12 0 -12"/>
  </g>
</svg>